<svg width="16" height="16" viewBox="0 0 16 16" fill="none" xmlns="http://www.w3.org/2000/svg">
<circle cx="8" cy="8" r="6.25" fill="#F4FC95" stroke="#818181" stroke-width="0.5"/>
<path d="M4.63358 6.501C4.84124 6.501 5.01508 6.52083 5.15508 6.5605C5.29741 6.60017 5.40358 6.6655 5.47358 6.7565C5.54591 6.8475 5.58208 6.96883 5.58208 7.1205C5.58208 7.2185 5.56341 7.306 5.52608 7.383C5.49108 7.45767 5.43741 7.52067 5.36508 7.572C5.29508 7.621 5.20874 7.65483 5.10608 7.6735V7.691C5.21108 7.70733 5.30558 7.73767 5.38958 7.782C5.47591 7.82633 5.54358 7.88933 5.59258 7.971C5.64158 8.05267 5.66608 8.15883 5.66608 8.2895C5.66608 8.44117 5.63108 8.57067 5.56108 8.678C5.49108 8.783 5.39074 8.8635 5.26008 8.9195C5.13174 8.97317 4.97774 9 4.79808 9H3.91958V6.501H4.63358ZM4.69658 7.565C4.91124 7.565 5.05824 7.53117 5.13758 7.4635C5.21691 7.3935 5.25658 7.29083 5.25658 7.1555C5.25658 7.01783 5.20758 6.91983 5.10958 6.8615C5.01391 6.80083 4.85991 6.7705 4.64758 6.7705H4.23458V7.565H4.69658ZM4.23458 7.8275V8.734H4.73858C4.96024 8.734 5.11424 8.69083 5.20058 8.6045C5.28691 8.51817 5.33008 8.405 5.33008 8.265C5.33008 8.17633 5.31024 8.09933 5.27058 8.034C5.23324 7.96867 5.16908 7.9185 5.07808 7.8835C4.98941 7.84617 4.86808 7.8275 4.71408 7.8275H4.23458ZM6.19595 9V6.501H6.51095V8.72H7.60295V9H6.19595ZM10.0334 7.726C10.0334 8.006 9.98089 8.2405 9.87589 8.4295C9.77323 8.6185 9.62506 8.76083 9.43139 8.8565C9.23773 8.95217 9.00323 9 8.72789 9H8.03139V6.501H8.80139C9.05339 6.501 9.27156 6.54767 9.45589 6.641C9.64023 6.73433 9.78256 6.872 9.88289 7.054C9.98323 7.23367 10.0334 7.45767 10.0334 7.726ZM9.70089 7.7365C9.70089 7.51483 9.66356 7.33283 9.58889 7.1905C9.51656 7.04817 9.40923 6.94317 9.26689 6.8755C9.12689 6.8055 8.95656 6.7705 8.75589 6.7705H8.34639V8.7305H8.68589C9.02423 8.7305 9.27739 8.64767 9.44539 8.482C9.61573 8.314 9.70089 8.0655 9.70089 7.7365ZM11.673 7.6805H12.5375V8.9055C12.4022 8.94983 12.2657 8.9825 12.128 9.0035C11.9904 9.0245 11.834 9.035 11.659 9.035C11.4 9.035 11.1819 8.98367 11.0045 8.881C10.8272 8.776 10.6919 8.62783 10.5985 8.4365C10.5075 8.24283 10.462 8.01417 10.462 7.7505C10.462 7.48917 10.5134 7.26283 10.616 7.0715C10.7187 6.88017 10.8657 6.732 11.057 6.627C11.2507 6.51967 11.484 6.466 11.757 6.466C11.897 6.466 12.0289 6.47883 12.1525 6.5045C12.2785 6.53017 12.3952 6.56633 12.5025 6.613L12.3835 6.886C12.2949 6.84633 12.1945 6.8125 12.0825 6.7845C11.9729 6.7565 11.8585 6.7425 11.7395 6.7425C11.5412 6.7425 11.3709 6.78333 11.2285 6.865C11.0862 6.94667 10.9777 7.06333 10.903 7.215C10.8284 7.36433 10.791 7.54283 10.791 7.7505C10.791 7.94883 10.8225 8.125 10.8855 8.279C10.9509 8.43067 11.0524 8.54967 11.19 8.636C11.3277 8.72 11.5085 8.762 11.7325 8.762C11.8072 8.762 11.8725 8.75967 11.9285 8.755C11.9869 8.748 12.0394 8.73983 12.086 8.7305C12.135 8.72117 12.1805 8.71183 12.2225 8.7025V7.9605H11.673V7.6805Z" fill="#2E2E2E"/>
</svg>
