<svg width="16" height="16" viewBox="0 0 16 16" fill="none" xmlns="http://www.w3.org/2000/svg">
<mask id="path-2-inside-1_3450_14580" fill="white">
<path fill-rule="evenodd" clip-rule="evenodd" d="M11.5 7V7.5H10.5V11.5H11.5V12.5H8.5V14.5H7.5V12.5H4.5V11.5H5.5V7.5H4.5L4.5 7H4L4 7.5H3L3 6.11603L1.5 5.25L3 4.38397L3 3H4L4 3.5H4.5L4.5 3H5.12734C5.75982 2.09326 6.81063 1.5 8 1.5C9.18937 1.5 10.2402 2.09326 10.8727 3H11.5V3.5H12V3H13V4.38397L14.5 5.25L13 6.11603V7.5H12V7H11.5Z"/>
</mask>
<path fill-rule="evenodd" clip-rule="evenodd" d="M11.5 7V7.5H10.5V11.5H11.5V12.5H8.5V14.5H7.5V12.5H4.5V11.5H5.5V7.5H4.5L4.5 7H4L4 7.5H3L3 6.11603L1.5 5.25L3 4.38397L3 3H4L4 3.5H4.5L4.5 3H5.12734C5.75982 2.09326 6.81063 1.5 8 1.5C9.18937 1.5 10.2402 2.09326 10.8727 3H11.5V3.5H12V3H13V4.38397L14.5 5.25L13 6.11603V7.5H12V7H11.5Z" fill="#FF0000"/>
<path d="M11.5 7.5V7.75H11.75V7.5H11.5ZM11.5 7V6.75H11.25V7H11.5ZM10.5 7.5V7.25H10.25V7.5H10.5ZM10.5 11.5H10.25V11.75H10.5V11.5ZM11.5 11.5H11.75V11.25H11.5V11.5ZM11.5 12.5V12.75H11.75V12.5H11.5ZM8.5 12.5V12.25H8.25V12.5H8.5ZM8.5 14.5V14.75H8.75V14.5H8.5ZM7.5 14.5H7.25V14.75H7.5V14.5ZM7.5 12.5H7.75V12.25H7.5V12.5ZM4.5 12.5H4.25V12.75H4.5V12.5ZM4.5 11.5V11.25H4.25V11.5H4.5ZM5.5 11.5V11.75H5.75V11.5H5.5ZM5.5 7.5H5.75V7.25H5.5V7.5ZM4.5 7.5H4.25L4.25 7.75H4.5V7.5ZM4.5 7H4.75L4.75 6.75H4.5V7ZM4 7V6.75H3.75L3.75 7H4ZM4 7.5V7.75H4.25L4.25 7.5H4ZM3 7.5H2.75V7.75H3V7.5ZM3 6.11603H3.25V5.97169L3.125 5.89952L3 6.11603ZM1.5 5.25L1.375 5.03349L1 5.25L1.375 5.46651L1.5 5.25ZM3 4.38397L3.125 4.60048L3.25 4.52831V4.38397H3ZM3 3V2.75H2.75V3H3ZM4 3L4.25 3L4.25 2.75H4V3ZM4 3.5L3.75 3.5L3.75 3.75H4V3.5ZM4.5 3.5V3.75H4.75L4.75 3.5L4.5 3.5ZM4.5 3V2.75H4.25L4.25 3L4.5 3ZM5.12734 3V3.25H5.25777L5.33239 3.14302L5.12734 3ZM10.8727 3L10.6676 3.14302L10.7422 3.25H10.8727V3ZM11.5 3H11.75V2.75H11.5V3ZM11.5 3.5H11.25V3.75H11.5V3.5ZM12 3.5V3.75H12.25V3.5H12ZM12 3V2.75H11.75V3H12ZM13 3H13.25V2.75H13V3ZM13 4.38397H12.75V4.52831L12.875 4.60048L13 4.38397ZM14.5 5.25L14.625 5.46651L15 5.25L14.625 5.03349L14.5 5.25ZM13 6.11603L12.875 5.89952L12.75 5.97169V6.11603H13ZM13 7.5V7.75H13.25V7.5H13ZM12 7.5H11.75V7.75H12V7.5ZM12 7H12.25V6.75H12V7ZM11.75 7.5V7H11.25V7.5H11.75ZM10.5 7.75H11.5V7.25H10.5V7.75ZM10.75 11.5V7.5H10.25V11.5H10.75ZM11.5 11.25H10.5V11.75H11.5V11.25ZM11.75 12.5V11.5H11.25V12.5H11.75ZM8.5 12.75H11.5V12.25H8.5V12.75ZM8.75 14.5V12.5H8.25V14.5H8.75ZM7.5 14.75H8.5V14.25H7.5V14.75ZM7.25 12.5V14.5H7.75V12.5H7.25ZM4.5 12.75H7.5V12.25H4.5V12.75ZM4.25 11.5V12.5H4.75V11.5H4.25ZM5.5 11.25H4.5V11.75H5.5V11.25ZM5.25 7.5V11.5H5.75V7.5H5.25ZM4.5 7.75H5.5V7.25H4.5V7.75ZM4.25 7L4.25 7.5H4.75L4.75 7H4.25ZM4 7.25H4.5V6.75H4V7.25ZM4.25 7.5L4.25 7H3.75L3.75 7.5H4.25ZM3 7.75H4V7.25H3V7.75ZM2.75 6.11603L2.75 7.5H3.25L3.25 6.11603H2.75ZM1.375 5.46651L2.875 6.33253L3.125 5.89952L1.625 5.03349L1.375 5.46651ZM2.875 4.16747L1.375 5.03349L1.625 5.46651L3.125 4.60048L2.875 4.16747ZM2.75 3L2.75 4.38397H3.25L3.25 3H2.75ZM4 2.75H3V3.25H4V2.75ZM4.25 3.5L4.25 3L3.75 3L3.75 3.5L4.25 3.5ZM4.5 3.25H4V3.75H4.5V3.25ZM4.25 3L4.25 3.5L4.75 3.5L4.75 3L4.25 3ZM5.12734 2.75H4.5V3.25H5.12734V2.75ZM8 1.25C6.72546 1.25 5.59952 1.88608 4.9223 2.85698L5.33239 3.14302C5.92011 2.30044 6.89579 1.75 8 1.75V1.25ZM11.0777 2.85698C10.4005 1.88608 9.27454 1.25 8 1.25V1.75C9.1042 1.75 10.0799 2.30044 10.6676 3.14302L11.0777 2.85698ZM11.5 2.75H10.8727V3.25H11.5V2.75ZM11.75 3.5V3H11.25V3.5H11.75ZM12 3.25H11.5V3.75H12V3.25ZM11.75 3V3.5H12.25V3H11.75ZM13 2.75H12V3.25H13V2.75ZM13.25 4.38397V3H12.75V4.38397H13.25ZM12.875 4.60048L14.375 5.46651L14.625 5.03349L13.125 4.16747L12.875 4.60048ZM14.375 5.03349L12.875 5.89952L13.125 6.33253L14.625 5.46651L14.375 5.03349ZM13.25 7.5V6.11603H12.75V7.5H13.25ZM12 7.75H13V7.25H12V7.75ZM11.75 7V7.5H12.25V7H11.75ZM11.5 7.25H12V6.75H11.5V7.25Z" fill="black" mask="url(#path-2-inside-1_3450_14580)"/>
</svg>
