<svg width="16" height="16" viewBox="0 0 16 16" fill="none" xmlns="http://www.w3.org/2000/svg">
<path d="M2.36445 9.47973V6.51973H6.94364H8.368H13.9086L13.9094 6.51986C13.9122 6.52046 13.9171 6.52159 13.9236 6.52356C13.9366 6.52751 13.9564 6.53485 13.9807 6.54812C14.0292 6.57455 14.097 6.62512 14.1661 6.72135C14.3046 6.91427 14.4506 7.2939 14.4506 8.0354C14.4506 8.77737 14.3044 9.13783 14.1674 9.31202C14.0992 9.39874 14.0326 9.44026 13.9852 9.46034C13.9613 9.47045 13.9419 9.47529 13.9292 9.47761C13.9228 9.47877 13.918 9.4793 13.9152 9.47954L13.9125 9.47972L13.9125 9.47973L13.9126 9.47973L13.9127 9.47973M2.36445 9.47973L13.9128 9.52973C13.9128 9.47973 13.9128 9.47973 13.9127 9.47973M2.36445 9.47973H13.9124H13.9127M2.36445 9.47973H13.9127" fill="#E7E7E7" stroke="black" stroke-width="0.1"/>
<path d="M3.07785 7.99973C3.07785 8.4157 2.98804 8.78981 2.84531 9.05812C2.70142 9.3286 2.51116 9.47973 2.31392 9.47973C2.11669 9.47973 1.92643 9.3286 1.78253 9.05812C1.6398 8.78981 1.55 8.4157 1.55 7.99973C1.55 7.58376 1.6398 7.20964 1.78253 6.94134C1.92643 6.67085 2.11669 6.51973 2.31392 6.51973C2.51116 6.51973 2.70142 6.67085 2.84531 6.94134C2.98804 7.20964 3.07785 7.58376 3.07785 7.99973Z" fill="#B0B0B0" stroke="black" stroke-width="0.1"/>
<g clip-path="url(#clip0_3450_72434)">
<path d="M7.89405 6.76131L8.39443 6.61338C8.46382 6.59292 8.53721 6.58998 8.60801 6.60484C8.67882 6.6197 8.74483 6.65189 8.80015 6.69852C8.85546 6.74515 8.89835 6.80478 8.92497 6.87205C8.95159 6.93932 8.96111 7.01215 8.95267 7.084L8.60936 9.99672C8.60092 10.0665 8.5687 10.1313 8.51811 10.1801C8.46752 10.229 8.40165 10.2589 8.33159 10.2649C8.26152 10.2708 8.19154 10.2525 8.13342 10.2129C8.0753 10.1733 8.03258 10.1149 8.01246 10.0476L7.44024 8.11205L7.03012 8.21961C6.92022 8.24816 6.80352 8.23285 6.7047 8.17693C6.60587 8.12102 6.53265 8.02887 6.50052 7.91996L6.01075 6.2633C5.97786 6.15203 5.99051 6.03225 6.04593 5.9303C6.10135 5.82836 6.195 5.75261 6.30627 5.71972L7.0637 5.49579C7.17497 5.4629 7.29475 5.47555 7.39669 5.53097C7.49863 5.58639 7.57438 5.68004 7.60728 5.79131L7.89405 6.76131Z" fill="#15CBF4"/>
</g>
<defs>
<clipPath id="clip0_3450_72434">
<rect width="7" height="7" fill="white" transform="translate(3.5 5.48438) rotate(-16.4696)"/>
</clipPath>
</defs>
</svg>
