<svg width="16" height="16" viewBox="0 0 16 16" fill="none" xmlns="http://www.w3.org/2000/svg">
<circle cx="8" cy="8" r="6.25" fill="#43A0F8" stroke="black" stroke-width="0.5"/>
<path d="M7.91709 11L6.03709 5.992H6.00509C6.01576 6.09867 6.02376 6.23467 6.02909 6.4C6.03976 6.56533 6.04776 6.74667 6.05309 6.944C6.05843 7.136 6.06109 7.33333 6.06109 7.536V11H5.39709V5.288H6.46109L8.22109 9.968H8.25309L10.0451 5.288H11.1011V11H10.3891V7.488C10.3891 7.30133 10.3918 7.11733 10.3971 6.936C10.4024 6.74933 10.4104 6.576 10.4211 6.416C10.4318 6.25067 10.4398 6.112 10.4451 6H10.4131L8.50909 11H7.91709Z" fill="black"/>
</svg>
