<svg width="16" height="16" viewBox="0 0 16 16" fill="none" xmlns="http://www.w3.org/2000/svg">
<path d="M13 9.36842C13 12.2025 10.7614 14.5 8 14.5C5.23858 14.5 3 12.2025 3 9.36842C3 6.53433 7.83333 1.5 7.83333 1.5C7.83333 1.5 13 6.53433 13 9.36842Z" fill="#0080FF"/>
<path d="M5.65732 8.358C5.93732 8.358 6.14132 8.413 6.26932 8.523C6.39732 8.633 6.46132 8.788 6.46132 8.988C6.46132 9.076 6.44632 9.161 6.41632 9.243C6.38832 9.323 6.34132 9.395 6.27532 9.459C6.20932 9.523 6.12132 9.574 6.01132 9.612C5.90132 9.648 5.76632 9.666 5.60632 9.666H5.36032V10.5H5.09032V8.358H5.65732ZM5.63332 8.589H5.36032V9.435H5.57632C5.71232 9.435 5.82532 9.421 5.91532 9.393C6.00532 9.363 6.07232 9.316 6.11632 9.252C6.16032 9.188 6.18232 9.104 6.18232 9C6.18232 8.862 6.13832 8.759 6.05032 8.691C5.96232 8.623 5.82332 8.589 5.63332 8.589ZM9.36672 8.358L8.79672 10.5H8.52372L8.10672 9.096C8.09472 9.054 8.08272 9.011 8.07072 8.967C8.05872 8.923 8.04772 8.881 8.03772 8.841C8.02772 8.801 8.01872 8.767 8.01072 8.739C8.00472 8.709 8.00072 8.687 7.99872 8.673C7.99672 8.687 7.99272 8.709 7.98672 8.739C7.98272 8.767 7.97572 8.801 7.96572 8.841C7.95572 8.881 7.94472 8.924 7.93272 8.97C7.92272 9.014 7.91072 9.059 7.89672 9.105L7.49172 10.5H7.21872L6.65172 8.358H6.93372L7.26672 9.666C7.27872 9.712 7.28972 9.758 7.29972 9.804C7.30972 9.848 7.31872 9.892 7.32672 9.936C7.33672 9.978 7.34472 10.019 7.35072 10.059C7.35672 10.099 7.36272 10.138 7.36872 10.176C7.37472 10.136 7.38072 10.095 7.38672 10.053C7.39472 10.011 7.40372 9.968 7.41372 9.924C7.42372 9.878 7.43472 9.832 7.44672 9.786C7.45872 9.74 7.47072 9.695 7.48272 9.651L7.86072 8.358H8.13972L8.53272 9.66C8.54672 9.706 8.55972 9.753 8.57172 9.801C8.58372 9.847 8.59472 9.892 8.60472 9.936C8.61472 9.98 8.62272 10.023 8.62872 10.065C8.63672 10.105 8.64372 10.142 8.64972 10.176C8.65572 10.126 8.66372 10.074 8.67372 10.02C8.68372 9.964 8.69572 9.906 8.70972 9.846C8.72372 9.786 8.73872 9.725 8.75472 9.663L9.08472 8.358H9.36672ZM10.9197 10.5L10.6617 9.837H9.81267L9.55767 10.5H9.28467L10.1217 8.349H10.3647L11.1987 10.5H10.9197ZM10.3407 8.949C10.3347 8.933 10.3247 8.904 10.3107 8.862C10.2967 8.82 10.2827 8.777 10.2687 8.733C10.2567 8.687 10.2467 8.652 10.2387 8.628C10.2287 8.668 10.2177 8.709 10.2057 8.751C10.1957 8.791 10.1847 8.828 10.1727 8.862C10.1627 8.896 10.1537 8.925 10.1457 8.949L9.90267 9.597H10.5807L10.3407 8.949Z" fill="black"/>
</svg>
